<svg xmlns="http://www.w3.org/2000/svg" version="1.0" width="173.000000pt" height="139.000000pt" viewBox="0 0 173.000000 139.000000" preserveAspectRatio="xMidYMid meet">
<metadata fill="#0b5e1b">
Created by potrace 1.10, written by Peter Selinger 2001-2011
</metadata>
<g transform="translate(0.000000,139.000000) scale(0.100000,-0.100000)" fill="#0b5e1b" stroke="none">
<path d="M767 1247 c-51 -47 -56 -55 -42 -67 13 -11 20 -11 40 0 26 14 42 9 30 -9 -13 -22 -112 -11 -267 30 -29 8 -44 6 -68 -6 -41 -21 -38 -28 13 -20 l42 6 -45 -21 c-24 -12 -48 -26 -52 -33 -5 -8 -8 -6 -8 6 0 9 -5 17 -11 17 -24 0 -119 -62 -150 -97 l-32 -37 26 -20 c21 -18 23 -23 12 -33 -8 -7 -22 -13 -32 -13 -32 0 -46 -17 -53 -63 -8 -58 2 -87 29 -80 32 8 25 -17 -8 -28 -22 -8 -28 -15 -24 -30 3 -10 12 -19 20 -19 21 0 10 -23 -17 -37 -26 -13 -27 -12 25 -28 14 -4 14 -8 0 -42 -15 -35 -15 -36 3 -20 24 22 72 19 72 -5 0 -21 -29 -38 -64 -38 -27 0 -35 -15 -13 -23 6 -2 26 -2 44 0 24 4 33 1 42 -16 7 -11 17 -21 23 -21 7 0 24 -12 39 -26 29 -27 130 -54 207 -54 l43 0 -7 -120 c-5 -106 -4 -120 10 -120 9 0 16 -4 16 -10 0 -5 4 -10 8 -10 5 0 8 50 8 111 -1 61 2 113 7 116 4 2 7 17 7 32 0 21 6 30 21 34 26 7 79 -2 79 -14 0 -4 12 -9 27 -11 22 -2 29 -9 33 -33 l6 -30 121 3 c67 1 133 7 145 12 17 6 19 9 6 9 -29 1 -21 21 8 21 18 0 24 -4 21 -13 -4 -11 3 -12 39 -4 24 6 47 8 50 4 3 -3 8 -63 11 -134 5 -116 12 -142 34 -143 3 0 2 28 -2 63 -14 111 -15 227 -3 227 7 0 14 8 17 19 6 23 57 35 57 13 0 -9 -10 -27 -22 -40 -22 -23 -22 -24 -2 -14 27 14 40 31 48 63 7 33 36 47 36 19 0 -25 29 -25 90 -1 53 22 69 43 51 65 -19 23 -32 20 -26 -7 4 -18 -2 -25 -30 -39 -20 -10 -46 -18 -58 -18 -21 1 -21 1 5 23 29 24 25 55 -6 44 -9 -4 -16 -1 -16 5 0 13 47 58 61 58 13 0 11 -24 -3 -38 -9 -9 -7 -12 10 -12 17 0 23 8 28 38 5 27 24 55 72 104 41 43 62 73 59 82 -3 8 -24 20 -46 26 l-41 11 0 63 c0 54 -3 66 -26 87 -14 13 -34 40 -45 60 -20 40 -74 79 -108 79 -12 0 -35 7 -51 15 -22 11 -27 20 -23 36 5 19 3 21 -18 16 -13 -4 -53 -12 -89 -18 -35 -7 -80 -19 -100 -27 -19 -9 -41 -15 -48 -13 -20 3 -72 -38 -72 -58 0 -23 -46 -62 -65 -55 -17 7 -18 11 -16 77 1 46 0 47 -20 37 -11 -7 -27 -9 -35 -6 -8 3 -14 1 -14 -4 0 -6 -4 -10 -10 -10 -5 0 -10 9 -10 19 0 11 -6 22 -12 24 -10 4 -10 6 -1 6 6 1 14 -3 17 -8 5 -7 86 64 86 75 0 2 -9 4 -20 4 -23 0 -24 4 -10 31 8 13 7 19 0 19 -6 0 -8 5 -5 11 13 20 117 -2 183 -38 57 -32 74 -34 54 -8 -17 24 -121 64 -177 70 l-60 6 -58 -54z m-72 -114 c22 -11 69 -47 104 -80 74 -68 74 -74 -8 -138 -27 -22 -50 -45 -51 -51 0 -7 -7 -14 -15 -18 -28 -10 -16 -26 15 -19 35 6 41 -10 10 -29 -16 -10 -20 -24 -20 -65 0 -61 7 -83 24 -77 17 6 34 -16 42 -53 4 -22 2 -32 -10 -36 -19 -7 -30 8 -22 30 5 13 4 14 -9 3 -8 -7 -15 -20 -15 -29 1 -19 46 -55 60 -46 6 3 10 2 10 -4 0 -5 -4 -13 -10 -16 -5 -3 -10 -17 -10 -31 0 -19 -5 -24 -24 -24 -13 0 -26 5 -28 11 -3 10 -50 14 -98 7 -22 -3 -25 1 -28 30 -4 37 -22 44 -22 7 0 -14 -5 -25 -11 -25 -6 0 -8 -9 -4 -20 6 -18 2 -20 -44 -20 -69 0 -126 25 -151 65 -25 41 -25 45 2 45 16 0 19 -3 11 -11 -34 -34 52 -56 93 -24 18 15 15 15 -36 10 l-55 -6 30 24 30 25 -55 0 c-30 0 -59 1 -65 3 -5 1 -18 -1 -28 -6 -23 -10 -33 1 -18 19 13 16 65 13 86 -4 10 -8 15 -6 21 12 4 13 7 27 6 31 -1 4 13 25 33 45 19 20 35 40 35 43 0 4 -22 6 -49 6 -37 -1 -48 -4 -47 -16 1 -10 -9 -17 -28 -19 -18 -2 -26 0 -21 7 3 6 1 11 -6 11 -7 0 -9 -10 -7 -24 4 -17 1 -23 -9 -19 -15 6 -18 -13 -3 -22 6 -4 8 -11 4 -16 -3 -6 -12 -2 -19 8 -7 10 -19 18 -27 18 -7 0 -14 8 -16 19 -3 11 0 16 7 12 6 -4 11 -2 11 3 0 6 7 11 15 11 8 0 12 6 10 13 -3 6 -1 19 5 27 8 13 11 13 22 -3 18 -24 48 -12 48 18 0 13 -6 30 -13 37 -8 8 -12 27 -9 50 3 29 10 39 33 49 39 15 50 3 19 -21 -14 -10 -22 -21 -19 -25 4 -3 29 16 57 43 38 37 48 52 39 61 -6 6 -16 11 -22 11 -20 0 -76 -32 -82 -46 -3 -7 -20 -16 -39 -20 -18 -3 -33 -9 -32 -13 2 -22 -5 -31 -27 -31 -14 0 -25 -4 -25 -10 0 -5 -14 -10 -31 -10 -27 0 -30 2 -19 15 7 8 19 15 26 15 8 0 14 5 14 11 0 6 9 9 19 6 14 -3 18 -1 14 9 -3 8 -14 14 -24 14 -10 0 -19 5 -19 11 0 6 -9 8 -22 4 -13 -3 6 8 42 25 35 17 70 28 76 26 7 -3 15 0 18 7 3 7 3 1 0 -12 -4 -17 -2 -22 7 -19 8 3 14 17 15 33 1 38 84 113 84 76 0 -5 -10 -18 -22 -28 -13 -10 -29 -26 -37 -36 -12 -15 -11 -17 3 -17 9 0 16 6 16 13 0 6 15 28 33 47 19 19 32 41 30 47 -3 7 8 17 22 23 15 6 39 19 53 30 13 11 33 20 43 20 11 0 19 6 19 14 0 17 40 9 95 -21z m-185 -3 c0 -5 -6 -10 -14 -10 -8 0 -23 -3 -33 -7 -16 -6 -16 -5 -4 10 15 18 51 23 51 7z m718 -16 c19 -6 22 -11 16 -39 -5 -28 -2 -33 17 -38 12 -3 44 -1 71 4 68 15 82 8 61 -30 -22 -37 -5 -61 43 -61 41 0 64 -29 64 -82 0 -47 -15 -56 -51 -29 -24 18 -29 19 -29 6 0 -9 7 -18 15 -22 14 -5 14 -8 -1 -24 -12 -13 -14 -23 -7 -30 7 -7 14 -5 23 6 17 21 37 19 45 -4 7 -24 -21 -85 -58 -125 -16 -17 -40 -49 -54 -70 -44 -68 -71 -87 -112 -80 -51 9 -57 19 -22 34 17 7 31 16 31 21 0 12 -8 11 -60 -7 -25 -9 -72 -19 -105 -23 l-60 -8 35 -13 35 -14 -40 -18 c-22 -9 -54 -18 -72 -18 -25 0 -30 3 -26 18 2 10 16 26 31 35 15 9 21 17 15 17 -19 0 -16 20 3 20 20 0 13 24 -9 28 -23 5 -50 -24 -43 -45 3 -10 2 -23 -2 -29 -12 -18 -52 -36 -68 -30 -8 3 -14 -1 -14 -9 0 -20 -67 -47 -87 -36 -10 5 -12 11 -5 15 6 4 9 13 5 21 -3 8 0 15 7 15 6 0 9 -4 6 -8 -3 -5 11 -8 29 -8 19 1 33 6 31 11 -2 6 17 23 42 38 29 19 41 32 33 36 -6 4 -9 15 -5 25 4 12 10 14 19 6 6 -5 15 -7 18 -3 11 10 8 35 -2 28 -15 -8 -23 12 -27 66 -3 31 0 51 8 56 14 9 38 48 38 60 0 5 -7 0 -14 -9 -18 -24 -65 -48 -82 -41 -8 3 -14 20 -14 42 0 39 -29 81 -55 81 -8 0 -15 8 -15 17 0 14 -4 13 -23 -6 -14 -12 -30 -19 -40 -15 -13 4 -10 11 16 34 24 21 36 26 49 19 17 -9 41 7 51 33 2 8 8 9 13 4 5 -5 4 -11 -3 -13 -8 -3 -11 -14 -7 -27 4 -16 0 -25 -12 -30 -16 -6 -16 -8 2 -20 10 -8 22 -12 26 -10 4 2 9 0 12 -5 3 -5 15 -7 26 -4 23 6 27 -12 5 -21 -9 -3 -15 -18 -15 -37 0 -27 2 -30 15 -19 8 7 15 21 15 31 0 10 9 24 20 32 19 13 18 15 -20 32 -41 19 -49 29 -27 39 6 3 3 4 -7 3 -26 -3 -32 20 -7 28 31 9 64 61 56 86 -5 14 -3 19 3 15 6 -3 14 -1 19 6 8 13 9 18 12 38 1 11 61 44 67 37 3 -3 26 1 52 8 56 16 69 17 100 9z m-788 -21 c0 -3 -9 -3 -20 0 -11 3 -23 1 -26 -4 -3 -5 4 -9 16 -9 12 0 18 -4 15 -10 -3 -5 -15 -10 -26 -10 -10 0 -19 -4 -19 -10 0 -5 -5 -10 -10 -10 -7 0 -7 6 0 20 12 22 1 27 -18 8 -7 -7 -12 -9 -12 -5 0 4 -15 -10 -34 -31 -26 -27 -38 -34 -46 -26 -18 18 47 76 100 90 41 10 80 9 80 -3z m900 -12 c28 -8 20 -15 -27 -26 -38 -8 -54 0 -46 20 5 16 31 18 73 6z m-970 -59 c0 -10 -60 -45 -66 -39 -8 7 37 47 53 47 7 0 13 -4 13 -8z m1073 -26 c7 -16 -1 -26 -20 -26 -7 0 -13 9 -13 20 0 23 25 27 33 6z m-1125 -178 c-2 -13 -7 -23 -13 -23 -5 0 -11 10 -13 23 -2 15 2 22 13 22 11 0 15 -7 13 -22z m528 11 c3 -6 0 -15 -7 -20 -11 -6 -8 -9 8 -9 51 0 25 -42 -34 -55 -39 -8 -41 -16 -9 -31 21 -10 23 -9 18 4 -3 10 -1 13 7 8 6 -4 18 -3 25 3 17 14 49 3 42 -14 -2 -7 4 -15 15 -18 13 -4 17 -10 12 -23 -5 -13 -3 -16 10 -11 28 11 19 -14 -15 -45 -32 -29 -62 -34 -64 -10 -1 6 -2 17 -3 22 0 6 -11 15 -23 21 -23 9 -22 9 2 6 14 -3 31 -6 38 -8 8 -2 18 6 23 19 9 24 5 24 -63 7 -22 -6 -30 -3 -35 11 -5 11 -15 19 -23 19 -18 0 -21 49 -2 51 6 1 18 2 25 3 9 1 12 11 9 32 -6 39 26 66 44 38z m-562 -64 c-4 -8 -15 -15 -26 -15 -11 0 -28 -5 -39 -10 -30 -17 -24 10 8 36 30 24 67 17 57 -11z m1299 9 c9 -9 -11 -44 -25 -44 -14 0 -48 30 -48 42 0 9 64 11 73 2z m-1313 -68 c0 -5 -3 -7 -6 -3 -4 3 -19 0 -34 -8 -33 -17 -45 -9 -22 15 30 31 61 29 62 -4z m130 -47 c0 -27 -22 -49 -51 -49 l-30 0 23 30 c21 29 58 41 58 19z m449 -63 c9 -11 8 -15 -5 -20 -23 -9 -24 -8 -24 14 0 23 13 26 29 6z m106 5 c3 -6 -3 -15 -14 -20 -14 -8 -22 -7 -32 6 -8 10 -9 14 -2 10 6 -4 14 -3 18 3 8 13 22 13 30 1z m-49 -39 c22 -15 10 -40 -29 -57 -46 -21 -71 -8 -42 21 13 13 14 19 5 22 -9 3 -9 6 1 13 17 11 50 11 65 1z m364 -89 c0 -11 -106 -53 -133 -53 -17 0 -19 2 -7 10 27 17 2 22 -31 6 -37 -18 -39 -19 -39 -8 0 9 47 30 84 36 16 3 30 6 32 8 7 7 94 7 94 1z m-296 -48 c15 -8 37 -15 47 -15 11 0 19 -5 19 -11 0 -7 -10 -9 -27 -5 -16 4 -41 10 -58 12 -47 8 -57 13 -50 24 9 14 35 12 69 -5z m-69 -45 c4 -6 -12 -10 -39 -10 -25 0 -46 5 -46 10 0 6 18 10 39 10 22 0 43 -4 46 -10z" fill="#0b5e1b"/>
</g>
</svg>