<?xml version="1.0" standalone="no"?>
<!DOCTYPE svg PUBLIC "-//W3C//DTD SVG 20010904//EN"
 "http://www.w3.org/TR/2001/REC-SVG-20010904/DTD/svg10.dtd">
<svg version="1.0" xmlns="http://www.w3.org/2000/svg"
 width="174.000000pt" height="94.000000pt" viewBox="0 0 174.000000 94.000000"
 preserveAspectRatio="xMidYMid meet">
<metadata>
Created by potrace 1.10, written by Peter Selinger 2001-2011
</metadata>
<g transform="translate(0.000000,94.000000) scale(0.100000,-0.100000)"
fill="#000000" stroke="none">
<path d="M655 710 c-11 -5 -35 -9 -52 -9 -21 -1 -33 -6 -33 -15 0 -9 7 -12 21
-9 16 4 20 2 17 -8 -3 -8 -12 -13 -22 -11 -9 2 -16 -2 -16 -8 0 -5 -7 -10 -15
-10 -8 0 -15 -5 -15 -11 0 -6 -9 -9 -19 -6 -11 3 -29 -2 -41 -10 -12 -8 -24
-13 -27 -9 -3 3 -23 -4 -45 -15 -22 -11 -44 -19 -49 -17 -17 6 64 52 130 75
36 12 67 27 69 33 4 12 -21 8 -63 -10 -123 -52 -134 -60 -238 -164 -59 -59
-107 -111 -107 -117 0 -5 -8 -9 -17 -9 -13 0 -14 -3 -6 -11 9 -9 20 -6 43 11
23 16 35 19 42 12 8 -8 6 -13 -8 -18 -25 -9 -51 -36 -57 -60 -3 -14 -5 -11 -6
9 -1 32 -16 36 -24 6 -4 -15 -13 -20 -34 -19 -46 3 -47 1 -16 -28 16 -16 28
-33 26 -39 -3 -7 4 -9 16 -6 11 3 19 10 18 17 -1 6 13 12 31 14 17 2 33 7 33
13 3 18 5 25 23 62 24 48 60 74 148 103 86 30 90 29 53 -1 -16 -14 -24 -25
-16 -25 7 0 24 10 35 23 12 12 31 27 42 33 37 22 6 24 -50 4 -51 -20 -58 -20
-78 -6 -29 20 -36 20 -34 -1 1 -22 -30 -29 -37 -9 -4 11 -1 13 10 9 11 -4 14
-3 9 6 -17 27 117 111 174 110 25 0 25 0 2 -9 -12 -5 -31 -18 -42 -28 -11 -11
-38 -25 -60 -32 -46 -15 -48 -20 -19 -39 17 -10 26 -10 45 -1 12 7 20 18 18
25 -3 8 16 23 50 40 30 15 56 30 58 34 2 3 28 22 58 41 l54 35 181 7 c197 8
215 7 293 -28 29 -13 68 -26 86 -29 18 -4 44 -16 57 -28 42 -39 80 -58 102
-54 21 3 21 4 2 11 -67 26 -80 40 -45 49 11 3 20 1 20 -4 0 -5 13 -9 29 -9 29
0 122 -25 152 -40 21 -11 28 -4 22 20 -5 19 -49 31 -113 31 l-35 0 25 14 25
14 -25 2 c-14 1 -37 1 -52 0 -14 -1 -29 3 -33 8 -3 6 -16 11 -28 10 -12 0 -16
-3 -9 -6 22 -9 13 -20 -18 -20 -16 0 -27 4 -24 9 3 4 -5 8 -18 8 -18 0 -20 2
-8 10 8 5 31 10 50 10 37 0 69 14 58 26 -4 3 -20 2 -35 -3 -54 -19 -243 2
-243 27 0 7 -66 13 -290 25 -47 2 -94 0 -105 -5z m83 -19 c11 -6 2 -10 -31
-12 -43 -4 -55 0 -43 12 9 9 58 9 74 0z m152 -5 c8 -2 -16 -4 -53 -5 -38 0
-66 2 -63 7 4 7 81 5 116 -2z"/>
<path d="M533 507 c4 -10 7 -25 7 -33 0 -8 5 -14 10 -14 16 0 11 36 -7 51 -15
12 -16 12 -10 -4z"/>
<path d="M1130 426 c-77 -23 -138 -54 -178 -90 -20 -18 -25 -18 -33 -6 -9 12
-10 12 -5 -2 3 -10 1 -18 -5 -18 -6 0 -7 -5 -3 -11 4 -7 1 -10 -7 -7 -18 6
-38 -20 -40 -52 l-1 -25 -7 25 c-7 24 -7 24 -14 -7 -5 -26 -12 -33 -30 -33
-26 0 -73 -29 -47 -30 8 0 33 5 55 11 51 14 175 17 175 4 0 -5 4 -4 9 4 5 7
13 11 18 8 12 -7 73 14 73 24 0 4 -8 9 -17 11 -27 5 42 38 95 45 23 3 42 10
42 14 0 5 -21 6 -47 3 -49 -7 -108 -35 -130 -62 -12 -14 -13 -14 -13 0 0 9 11
23 25 32 14 9 33 34 41 56 9 22 21 38 26 37 6 -1 13 4 15 11 3 6 -2 12 -10 12
-8 0 -17 -6 -20 -14 -3 -8 -32 -23 -64 -33 -32 -11 -67 -24 -78 -28 -38 -15
27 35 79 62 60 31 178 63 231 63 22 0 67 -7 100 -15 33 -8 71 -14 85 -15 14 0
36 -6 51 -13 78 -42 179 -60 179 -33 0 9 -12 14 -36 14 -21 0 -67 11 -103 25
-70 26 -176 47 -276 52 -42 3 -82 -3 -135 -19z m-99 -154 c-20 -20 -39 -38
-43 -40 -31 -14 -75 -21 -96 -15 l-25 6 28 15 c15 8 35 16 44 17 9 2 18 4 21
5 3 0 -4 7 -14 15 -19 14 -18 15 10 16 16 1 35 1 42 0 7 -1 19 5 28 13 8 8 20
13 28 10 9 -3 1 -17 -23 -42z"/>
</g>
</svg>
