<?xml version="1.0" standalone="no"?>
<!DOCTYPE svg PUBLIC "-//W3C//DTD SVG 20010904//EN"
 "http://www.w3.org/TR/2001/REC-SVG-20010904/DTD/svg10.dtd">
<svg version="1.0" xmlns="http://www.w3.org/2000/svg"
 width="217.000000pt" height="105.000000pt" viewBox="0 0 217.000000 105.000000"
 preserveAspectRatio="xMidYMid meet">
<metadata>
Created by potrace 1.10, written by Peter Selinger 2001-2011
</metadata>
<g transform="translate(0.000000,105.000000) scale(0.100000,-0.100000)"
fill="#000000" stroke="none">
<path d="M772 854 c-30 -15 -82 -71 -82 -87 0 -23 -145 -164 -251 -245 -95
-72 -255 -252 -224 -252 3 0 22 18 42 40 111 120 161 170 170 170 5 0 15 9 23
20 8 11 20 20 27 20 16 0 17 -27 2 -32 -18 -6 -1 -45 21 -51 32 -8 24 -41 -13
-55 -49 -17 -56 -15 -21 7 47 29 52 46 7 22 -53 -26 -71 -48 -48 -57 9 -4 27
-2 41 5 35 16 44 14 44 -9 0 -11 5 -20 10 -20 6 0 10 13 10 29 0 17 5 33 12
37 7 4 8 3 4 -4 -4 -7 -3 -12 2 -12 11 0 52 43 52 55 0 5 10 19 22 32 16 17
19 26 11 34 -13 13 -33 3 -33 -17 0 -8 -4 -14 -10 -14 -5 0 -10 -8 -10 -19 0
-10 -8 -25 -17 -32 -15 -12 -16 -12 -11 8 5 19 1 24 -25 31 -17 4 -33 14 -35
21 -3 8 0 11 5 8 6 -4 8 4 5 19 -3 17 2 30 14 39 27 20 58 19 50 -1 -3 -9 -6
-18 -6 -20 0 -2 -7 -4 -15 -4 -17 0 -19 -9 -5 -30 7 -11 10 -12 10 -2 0 15 79
102 92 102 4 0 8 -11 8 -24 0 -13 7 -27 16 -30 8 -3 12 -11 8 -17 -4 -7 -1
-10 7 -7 22 7 22 35 -1 41 -15 4 -20 13 -20 40 0 20 4 38 9 42 14 8 41 65 31
65 -5 0 -12 -4 -15 -10 -3 -5 -11 -10 -17 -10 -6 0 -3 9 7 20 10 11 23 19 29
18 18 -3 77 32 71 42 -8 13 -45 13 -45 1 0 -5 -7 -12 -16 -15 -32 -12 30 70
68 90 26 14 34 14 74 0 24 -8 61 -31 82 -50 20 -20 54 -41 75 -47 38 -10 66
-24 137 -67 19 -12 42 -22 52 -22 21 0 108 -84 108 -104 0 -9 -13 -22 -29 -30
-15 -8 -42 -30 -58 -49 -17 -19 -40 -38 -52 -42 -11 -3 -21 -11 -21 -16 0 -6
-4 -7 -10 -4 -5 3 -10 2 -10 -4 0 -5 5 -11 12 -13 8 -3 5 -16 -10 -42 -26 -44
-23 -51 20 -60 82 -18 119 -19 116 -4 -3 15 51 68 69 68 5 0 21 13 35 29 15
16 32 31 40 34 10 5 9 9 -4 20 -16 13 -15 15 16 24 39 12 56 2 55 -31 0 -21
-1 -21 -8 -1 -8 19 -8 19 -19 -2 -16 -30 -15 -33 11 -33 12 1 36 12 52 26 17
14 23 24 15 22 -19 -6 -52 36 -44 56 9 22 -7 20 -62 -9 -25 -14 -51 -22 -57
-18 -6 4 -8 -2 -5 -15 7 -26 2 -28 -19 -7 -8 8 -19 12 -25 9 -24 -15 -78 -22
-78 -10 0 21 23 36 57 36 18 0 33 5 33 10 0 7 6 7 19 0 14 -7 22 -7 26 0 4 6
10 8 15 5 5 -3 13 1 17 10 5 8 23 16 41 18 31 4 35 8 25 34 -4 9 -10 10 -24 2
-10 -5 -19 -7 -19 -3 0 3 -9 -4 -20 -17 -19 -24 -19 -24 -20 -3 0 22 24 39 41
28 5 -3 9 3 9 13 0 10 4 14 8 8 14 -19 30 -14 36 11 5 19 12 25 25 21 13 -3
22 3 30 19 6 13 19 24 30 24 10 0 21 7 25 15 13 36 68 10 121 -57 30 -38 57
-59 105 -81 36 -17 91 -53 123 -80 31 -28 60 -47 64 -43 13 13 -89 94 -158
127 -48 22 -81 48 -122 94 -63 70 -98 85 -150 64 -18 -7 -34 -15 -37 -18 -10
-12 -79 -61 -85 -61 -3 0 -21 -11 -39 -25 -42 -32 -99 -38 -104 -11 -3 15 0
17 14 12 14 -6 13 -1 -6 19 -14 15 -24 28 -22 31 1 2 2 20 2 40 0 31 -3 35
-17 29 -10 -4 -24 -8 -30 -8 -16 0 -16 -10 -1 -25 16 -16 7 -22 -20 -15 -29 7
-28 27 3 47 14 9 22 22 19 31 -3 8 6 25 20 40 20 20 30 23 48 16 13 -4 50 -17
82 -27 33 -10 68 -27 78 -38 18 -20 18 -20 18 1 0 24 -69 61 -156 83 -64 16
-86 3 -134 -79 l-35 -59 -60 33 c-33 18 -74 36 -91 40 -18 3 -40 15 -50 26
-31 35 -102 78 -136 84 -21 3 -45 -1 -66 -11z m-143 -221 c-18 -20 -20 -25 -6
-20 21 8 22 3 1 -17 -8 -9 -27 -16 -42 -15 l-27 1 25 8 c21 7 22 8 5 9 -17 1
-14 7 19 36 45 40 62 39 25 -2z m640 -219 c-6 -8 -20 -14 -30 -14 -21 0 -22
-1 -13 -24 4 -11 10 -13 18 -8 6 5 23 12 39 16 15 3 27 13 27 21 0 11 11 15
37 15 20 0 34 -2 32 -4 -30 -30 -83 -64 -94 -60 -7 3 -16 1 -20 -5 -3 -6 -1
-11 6 -11 10 0 10 -3 0 -12 -11 -10 -14 -10 -18 -1 -4 10 -10 9 -26 -2 -12 -8
-33 -15 -47 -14 l-25 1 28 11 c32 13 33 18 7 42 l-21 19 23 21 c26 25 97 33
77 9z"/>
<path d="M1495 583 c2 -10 4 -26 4 -37 1 -15 4 -16 15 -6 10 8 12 18 7 33 -10
26 -31 35 -26 10z"/>
<path d="M1088 382 c-23 -10 -118 -93 -118 -104 0 -11 28 5 60 34 14 13 40 35
58 51 33 27 33 32 0 19z"/>
<path d="M373 353 c-15 -6 -18 -43 -3 -43 9 0 30 31 30 44 0 7 -10 7 -27 -1z"/>
<path d="M1080 264 c0 -6 -22 -21 -50 -32 -27 -12 -50 -26 -50 -31 0 -15 12
-14 38 5 13 9 29 13 36 11 8 -3 27 9 43 28 29 32 29 33 6 31 -13 0 -23 -6 -23
-12z"/>
</g>
</svg>
