<?xml version="1.0" standalone="no"?>
<!DOCTYPE svg PUBLIC "-//W3C//DTD SVG 20010904//EN"
 "http://www.w3.org/TR/2001/REC-SVG-20010904/DTD/svg10.dtd">
<svg version="1.0" xmlns="http://www.w3.org/2000/svg"
 width="103.000000pt" height="70.000000pt" viewBox="0 0 103.000000 70.000000"
 preserveAspectRatio="xMidYMid meet">
<metadata>
Created by potrace 1.10, written by Peter Selinger 2001-2011
</metadata>
<g transform="translate(0.000000,70.000000) scale(0.100000,-0.100000)"
fill="#000000" stroke="none">
<path d="M770 578 c0 -19 -52 -68 -73 -68 -10 0 -21 9 -24 20 -7 27 -19 25
-39 -5 -21 -32 -47 -32 -72 2 l-19 26 -37 -36 c-20 -20 -40 -37 -45 -37 -12 0
-28 22 -32 44 -5 26 -27 32 -36 9 -11 -32 -44 -73 -58 -73 -7 0 -20 17 -28 38
l-15 37 -16 -37 c-8 -20 -21 -38 -28 -41 -7 -2 -10 -8 -6 -12 4 -4 18 -1 31 8
22 14 24 14 35 -4 17 -27 35 -24 71 13 29 30 32 30 49 15 26 -24 52 -21 84 10
26 25 29 25 46 10 23 -21 66 -22 86 -2 9 9 17 11 21 5 3 -5 18 -10 33 -10 31
0 103 65 95 86 -6 17 -23 18 -23 2z"/>
<path d="M593 368 c6 -18 -32 -48 -60 -48 -16 0 -23 6 -23 20 0 25 -18 25 -50
0 -30 -23 -66 -26 -74 -5 -8 21 -32 19 -57 -6 -25 -25 -40 -21 -57 14 -11 22
-16 25 -32 17 -27 -14 -60 -60 -60 -82 0 -16 5 -13 27 14 15 18 28 35 30 37 2
3 10 -5 19 -17 18 -27 60 -29 87 -5 18 17 19 17 32 0 16 -22 37 -22 85 3 22
11 40 17 40 13 0 -5 9 -14 21 -21 17 -11 25 -10 52 6 42 24 104 34 126 20 20
-12 71 7 79 30 6 18 -18 15 -41 -5 -18 -17 -20 -17 -37 5 -19 22 -20 23 -46 6
-24 -17 -27 -17 -36 -1 -10 20 -32 23 -25 5z"/>
<path d="M804 265 c-22 -29 -39 -32 -48 -9 -5 13 -12 11 -38 -15 -31 -30 -58
-40 -58 -22 0 5 7 14 15 21 17 14 20 40 5 40 -5 0 -14 -9 -20 -20 -6 -11 -17
-20 -25 -20 -8 0 -19 -9 -25 -20 -12 -23 -59 -27 -78 -8 -10 10 -17 10 -32 0
-26 -16 -40 -15 -40 2 0 27 -21 28 -41 2 -26 -33 -47 -33 -55 -1 -9 35 -29 31
-48 -10 -10 -21 -22 -32 -30 -29 -7 3 -16 -2 -20 -11 -9 -24 23 -31 39 -9 37
52 44 59 45 44 0 -8 9 -21 19 -27 16 -10 24 -9 45 8 18 14 31 18 39 12 22 -17
146 -14 173 3 19 13 27 14 39 4 12 -10 21 -8 49 8 19 11 44 18 55 15 24 -6 79
43 64 58 -6 6 -17 0 -29 -16z"/>
</g>
</svg>
