<svg xmlns="http://www.w3.org/2000/svg" version="1.0" width="103.000000pt" height="95.000000pt" viewBox="0 0 103.000000 95.000000" preserveAspectRatio="xMidYMid meet">
<metadata fill="#57a183">
Created by potrace 1.10, written by Peter Selinger 2001-2011
</metadata>
<g transform="translate(0.000000,95.000000) scale(0.100000,-0.100000)" fill="#57a183" stroke="none">
<path d="M434 740 c4 -28 9 -58 13 -68 4 -13 2 -12 -10 3 -8 12 -17 34 -20 50 l-4 30 -2 -33 c0 -18 7 -50 17 -70 17 -36 19 -87 2 -77 -4 3 -6 -4 -3 -15 3 -11 9 -17 14 -14 5 3 9 0 9 -5 0 -6 -9 -11 -20 -11 -11 0 -20 5 -20 11 0 12 -29 38 -42 39 -21 1 -4 -31 27 -50 60 -37 52 -42 -72 -44 -61 -1 -103 -16 -47 -16 25 -1 26 -2 11 -11 -9 -5 -23 -7 -30 -3 -6 4 -9 4 -5 -1 4 -4 0 -14 -10 -21 -15 -12 -13 -13 15 -11 21 1 33 7 34 17 0 13 1 13 6 0 10 -25 23 -28 87 -16 39 8 70 20 84 34 21 21 21 22 3 32 -16 8 -18 7 -13 -12 3 -14 2 -19 -6 -14 -7 4 -15 1 -18 -7 -2 -7 -10 -14 -17 -14 -7 0 -33 -4 -59 -8 -43 -6 -47 -5 -45 12 0 11 7 20 14 20 6 0 10 -4 7 -9 -6 -10 57 2 73 14 7 6 13 4 16 -4 3 -7 8 2 12 19 4 18 11 31 15 28 9 -6 12 175 4 233 -3 23 -11 42 -16 42 -7 0 -8 -19 -4 -50z" fill="#57a183"/>
<path d="M360 761 c0 -12 29 -35 36 -28 11 10 -5 37 -21 37 -8 0 -15 -4 -15 -9z" fill="#57a183"/>
<path d="M699 753 c-1 -4 0 -20 1 -35 1 -16 -3 -28 -9 -28 -6 0 -11 -5 -11 -12 0 -6 3 -9 6 -5 4 3 13 0 21 -8 11 -12 12 -25 2 -77 -6 -35 -15 -71 -20 -80 -12 -24 -11 -28 6 -28 8 0 15 -5 15 -11 0 -6 6 -17 14 -24 12 -12 15 -12 20 1 9 22 8 24 -10 24 -10 0 -14 6 -10 15 3 8 1 15 -4 15 -6 0 -5 11 2 25 6 14 15 25 20 25 4 0 8 5 8 11 0 6 7 17 15 25 8 9 15 23 15 32 -1 13 -7 10 -24 -12 -17 -20 -26 -25 -31 -16 -4 7 -3 15 2 19 5 3 15 21 21 39 10 30 10 32 -13 32 -21 0 -23 3 -18 34 3 19 1 36 -6 40 -6 4 -11 4 -12 -1z" fill="#57a183"/>
<path d="M617 704 c-7 -7 3 -37 15 -45 5 -3 11 -30 14 -60 8 -78 16 -91 25 -39 8 53 1 109 -12 88 -6 -9 -9 -7 -9 9 0 41 -16 64 -33 47z" fill="#57a183"/>
<path d="M330 616 c0 -8 7 -17 16 -20 31 -12 38 -6 16 14 -25 24 -32 25 -32 6z" fill="#57a183"/>
<path d="M776 467 c3 -26 3 -28 -5 -12 -8 17 -10 17 -10 3 -1 -21 35 -43 44 -28 3 5 1 10 -4 10 -6 0 -11 5 -11 10 0 6 7 10 15 10 30 0 10 31 -22 36 -8 1 -11 -8 -7 -29z" fill="#57a183"/>
<path d="M660 470 c0 -5 -6 -10 -14 -10 -8 0 -27 -5 -41 -10 -23 -9 -25 -13 -15 -25 7 -8 24 -14 39 -14 18 1 20 3 8 6 -14 4 -16 8 -6 19 13 16 49 19 49 5 0 -5 -6 -11 -12 -14 -7 -2 -10 -7 -7 -11 3 -3 14 1 25 8 19 14 19 15 -3 36 -13 11 -23 16 -23 10z" fill="#57a183"/>
<path d="M529 430 l-12 -41 -13 31 c-7 16 -14 30 -16 30 -2 0 -2 -36 0 -80 2 -44 8 -80 13 -80 5 0 8 -5 7 -11 -2 -6 3 -14 10 -16 7 -3 12 5 12 20 0 16 -7 27 -17 30 -13 3 -11 5 6 6 19 1 21 4 12 15 -9 11 -9 24 1 55 7 23 16 41 20 41 5 0 8 9 8 20 0 34 -19 22 -31 -20z" fill="#57a183"/>
<path d="M700 400 c0 -5 -13 -7 -29 -4 -26 6 -29 4 -24 -15 3 -13 1 -21 -8 -21 -7 0 -10 -3 -6 -6 3 -3 16 1 29 10 12 9 33 16 45 16 14 0 23 6 23 15 0 8 -7 15 -15 15 -8 0 -15 -4 -15 -10z" fill="#57a183"/>
<path d="M740 394 c0 -8 2 -14 4 -14 2 0 11 -3 20 -6 10 -4 16 -1 16 9 0 8 -9 17 -20 20 -13 3 -20 0 -20 -9z" fill="#57a183"/>
<path d="M345 355 c-22 -7 -70 -16 -107 -20 -47 -5 -68 -12 -68 -21 0 -14 30 -12 100 6 90 24 114 29 121 25 4 -3 9 2 13 10 6 18 -5 18 -59 0z" fill="#57a183"/>
<path d="M525 253 c-74 -9 -95 -15 -95 -27 0 -8 11 -16 25 -18 16 -4 25 -1 25 8 0 7 4 16 10 19 6 3 7 -1 4 -9 -7 -19 -9 -19 57 -5 48 11 51 13 34 25 -10 8 -21 13 -24 13 -3 -1 -19 -4 -36 -6z" fill="#57a183"/>
<path d="M630 234 c-24 -15 -24 -15 15 -9 47 8 72 25 35 25 -14 -1 -36 -8 -50 -16z" fill="#57a183"/>
<path d="M679 180 c-15 -4 -81 -13 -147 -20 -73 -8 -123 -18 -125 -25 -4 -8 10 -9 52 -4 31 4 82 10 114 13 74 7 137 24 137 36 0 6 -1 10 -2 9 -2 0 -15 -4 -29 -9z" fill="#57a183"/>
</g>
</svg>