<svg xmlns="http://www.w3.org/2000/svg" version="1.0" width="95.000000pt" height="94.000000pt" viewBox="0 0 95.000000 94.000000" preserveAspectRatio="xMidYMid meet">
<metadata fill="#e0c942">
Created by potrace 1.10, written by Peter Selinger 2001-2011
</metadata>
<g transform="translate(0.000000,94.000000) scale(0.100000,-0.100000)" fill="#e0c942" stroke="none">
<path d="M387 822 c-25 -28 -20 -37 9 -17 30 19 43 13 23 -11 -8 -10 -22 -14 -41 -10 -38 8 -46 -12 -10 -25 31 -11 47 -33 36 -51 -3 -5 -12 -7 -19 -4 -9 3 -11 -2 -7 -16 3 -12 7 -16 12 -8 4 6 13 10 21 8 18 -4 25 52 8 63 -11 6 -8 13 9 32 12 13 22 31 22 40 0 23 -42 22 -63 -1z" fill="#e0c942"/>
<path d="M499 826 c7 -9 26 -16 42 -16 23 0 29 -4 29 -22 1 -21 2 -22 14 -5 7 9 24 17 37 17 40 0 7 18 -46 24 -27 4 -59 9 -70 13 -17 5 -18 4 -6 -11z" fill="#e0c942"/>
<path d="M746 808 c-8 -33 -7 -48 4 -48 6 0 10 7 10 15 0 7 7 18 16 23 9 5 14 14 10 21 -12 18 -33 12 -40 -11z" fill="#e0c942"/>
<path d="M167 744 c-11 -12 3 -24 29 -24 16 0 24 5 22 13 -5 13 -40 22 -51 11z" fill="#e0c942"/>
<path d="M535 739 c-4 -5 1 -20 12 -31 13 -15 15 -22 6 -25 -26 -9 -12 -23 22 -23 42 0 43 6 9 35 -17 15 -25 29 -21 39 7 18 -18 23 -28 5z" fill="#e0c942"/>
<path d="M233 708 c-11 -13 -18 -28 -16 -35 2 -7 -11 -33 -31 -58 -22 -29 -33 -52 -29 -63 6 -13 7 -13 11 -1 3 7 13 22 22 31 16 15 19 15 49 -3 37 -22 51 -24 51 -6 0 8 9 24 20 37 24 28 26 44 4 36 -9 -3 -18 -6 -20 -6 -2 0 -4 -6 -4 -13 0 -7 -6 -21 -13 -30 -10 -15 -16 -16 -39 -5 -29 14 -34 23 -18 33 6 3 10 14 10 23 0 9 9 28 20 42 34 43 19 58 -17 18z" fill="#e0c942"/>
<path d="M490 671 c0 -9 27 -41 36 -41 13 0 1 31 -16 40 -12 6 -20 7 -20 1z" fill="#e0c942"/>
<path d="M346 631 c-13 -15 -16 -25 -9 -32 13 -13 36 14 31 37 -3 14 -6 13 -22 -5z" fill="#e0c942"/>
<path d="M839 624 c-7 -14 -19 -22 -26 -20 -7 3 -15 0 -19 -5 -9 -16 48 -7 69 11 21 17 22 26 3 33 -8 3 -19 -5 -27 -19z" fill="#e0c942"/>
<path d="M492 603 c2 -34 -11 -75 -26 -85 -7 -5 -3 -8 9 -8 11 0 32 -6 47 -14 15 -8 29 -12 32 -8 12 11 5 23 -20 32 -20 8 -25 16 -23 37 3 47 -1 73 -11 73 -6 0 -9 -12 -8 -27z" fill="#e0c942"/>
<path d="M652 608 c2 -13 9 -23 17 -23 23 0 24 23 1 35 -19 10 -21 9 -18 -12z" fill="#e0c942"/>
<path d="M571 603 c-1 -6 -10 -15 -21 -18 -19 -6 -28 -25 -12 -25 18 0 44 28 39 41 -3 8 -6 9 -6 2z" fill="#e0c942"/>
<path d="M113 536 c9 -7 17 -16 17 -19 0 -3 -8 -8 -17 -10 -12 -3 -8 -5 9 -6 15 0 29 3 33 8 7 13 -23 41 -43 41 -16 -1 -16 -2 1 -14z" fill="#e0c942"/>
<path d="M630 538 c0 -26 12 -58 22 -58 14 0 5 63 -9 68 -7 2 -13 -2 -13 -10z" fill="#e0c942"/>
<path d="M203 523 c-31 -12 -5 -143 28 -143 15 0 10 27 -7 34 -13 5 -16 17 -12 61 3 30 4 55 4 54 -1 0 -7 -3 -13 -6z" fill="#e0c942"/>
<path d="M346 508 c-9 -12 -16 -28 -16 -35 0 -22 -18 -14 -22 9 -2 14 -7 5 -14 -26 -6 -26 -7 -49 -3 -52 4 -2 24 17 43 43 20 27 40 53 45 59 10 12 4 24 -10 24 -4 0 -15 -10 -23 -22z" fill="#e0c942"/>
<path d="M856 476 c-8 -40 -2 -56 14 -40 5 5 5 25 1 44 l-7 35 -8 -39z" fill="#e0c942"/>
<path d="M742 468 c-14 -14 -16 -38 -4 -38 12 0 32 23 32 37 0 16 -12 17 -28 1z" fill="#e0c942"/>
<path d="M670 448 c0 -8 7 -23 15 -34 15 -18 15 -18 13 10 -3 29 -28 50 -28 24z" fill="#e0c942"/>
<path d="M817 414 c-9 -9 24 -55 34 -48 5 3 9 14 9 25 0 11 -4 17 -10 14 -5 -3 -10 -1 -10 4 0 12 -13 15 -23 5z" fill="#e0c942"/>
<path d="M425 389 c-4 -6 -1 -15 6 -20 21 -13 31 -11 27 8 -4 20 -24 28 -33 12z" fill="#e0c942"/>
<path d="M300 381 c0 -12 48 -23 71 -16 34 11 20 25 -26 25 -25 0 -45 -4 -45 -9z" fill="#e0c942"/>
<path d="M560 370 c0 -12 10 -19 33 -23 39 -6 38 -6 31 19 -7 28 -64 32 -64 4z" fill="#e0c942"/>
<path d="M140 342 c0 -13 35 -42 50 -42 9 0 5 9 -10 25 -24 25 -40 32 -40 17z" fill="#e0c942"/>
<path d="M410 318 c0 -7 4 -20 10 -28 13 -21 -7 -40 -41 -40 -37 0 -38 -15 -1 -18 41 -4 72 17 72 48 0 25 -16 50 -32 50 -4 0 -8 -6 -8 -12z" fill="#e0c942"/>
<path d="M263 301 c-21 -25 -33 -27 -33 -6 0 8 -4 15 -10 15 -16 0 -11 -47 6 -54 25 -10 29 -8 48 25 21 36 15 49 -11 20z" fill="#e0c942"/>
<path d="M573 285 c-19 -19 -39 -35 -43 -35 -10 0 -20 -26 -13 -34 11 -11 23 -6 23 9 0 8 4 15 10 15 10 0 80 64 80 74 0 16 -25 3 -57 -29z" fill="#e0c942"/>
<path d="M677 282 c-7 -10 32 -57 40 -48 3 3 1 17 -5 31 -11 25 -26 32 -35 17z" fill="#e0c942"/>
<path d="M253 220 c-24 -11 -43 -24 -43 -30 0 -15 16 -12 53 7 18 9 36 17 41 18 5 0 11 6 14 13 5 17 -15 14 -65 -8z" fill="#e0c942"/>
<path d="M445 213 c-15 -38 -22 -82 -14 -94 6 -10 9 -9 14 6 4 11 13 35 21 53 14 32 12 52 -6 52 -4 0 -11 -8 -15 -17z" fill="#e0c942"/>
<path d="M703 182 c-10 -9 -27 -30 -38 -45 -11 -15 -36 -33 -55 -40 -47 -17 -80 -39 -80 -54 0 -17 4 -17 56 11 44 23 87 58 109 88 6 8 19 24 29 36 23 26 4 30 -21 4z" fill="#e0c942"/>
<path d="M272 123 c0 -37 10 -51 19 -27 12 31 10 54 -5 54 -8 0 -14 -11 -14 -27z" fill="#e0c942"/>
<path d="M397 118 c-5 -18 3 -48 14 -48 12 0 12 47 0 54 -5 4 -11 0 -14 -6z" fill="#e0c942"/>
</g>
</svg>